HIERARCHY
ROOT Hips
{
     OFFSET 32.27200 96.78790 -14.46120
     CHANNELS 6 Xposition Yposition Zposition Zrotation Xrotation Yrotation
     JOINT Spine
     {
          OFFSET 0.00000 11.89050 0.00000
          CHANNELS 3 Zrotation Xrotation Yrotation
          JOINT Spine1
          {
               OFFSET 0.00000 25.65740 0.12766
               CHANNELS 3 Zrotation Xrotation Yrotation
               JOINT HEad
               {
                    OFFSET 0.00000 8.73416 0.01134
                    CHANNELS 3 Zrotation Xrotation Yrotation
                    End Site
                    {
                         OFFSET -0.29000 12.77420 2.51395
                    }
               }
               JOINT LeftShoulder1
               {
                    OFFSET 8.99000 -0.36225 -0.22000
                    CHANNELS 3 Zrotation Xrotation Yrotation
                    JOINT LeftArm
                    {
                         OFFSET 10.28270 -0.00338 0.32212
                         CHANNELS 3 Zrotation Xrotation Yrotation
                         JOINT LeftForeArm
                         {
                              OFFSET 32.76690 0.09914 -1.42434
                              CHANNELS 3 Zrotation Xrotation Yrotation
                              JOINT LeftHand
                              {
                                   OFFSET 27.56430 0.08536 1.02216
                                   CHANNELS 3 Zrotation Xrotation Yrotation
                                   End Site
                                   {
                                        OFFSET 16.74430 -0.60000 1.50291
                                   }
                              }
                         }
                    }
               }
               JOINT RightShoulder
               {
                    OFFSET -8.99000 -0.36225 -0.22000
                    CHANNELS 3 Zrotation Xrotation Yrotation
                    JOINT RightArm
                    {
                         OFFSET -10.28270 -0.00338 0.32212
                         CHANNELS 3 Zrotation Xrotation Yrotation
                         JOINT RightForeArm
                         {
                              OFFSET -32.89710 0.09914 -1.42434
                              CHANNELS 3 Zrotation Xrotation Yrotation
                              JOINT RightHand
                              {
                                   OFFSET -27.49210 0.08536 1.02216
                                   CHANNELS 3 Zrotation Xrotation Yrotation
                                   End Site
                                   {
                                        OFFSET -16.63120 -0.60000 1.50291
                                   }
                              }
                         }
                    }
               }
          }
     }
     JOINT LeftUpLeg
     {
          OFFSET 8.94580 -8.66707 0.10165
          CHANNELS 3 Zrotation Xrotation Yrotation
          JOINT LeftLeg
          {
               OFFSET 0.00000 -44.42270 1.37270
               CHANNELS 3 Zrotation Xrotation Yrotation
               JOINT LeftFoot
               {
                    OFFSET -0.25355 -42.09240 -1.46059
                    CHANNELS 3 Zrotation Xrotation Yrotation
                    JOINT LeftToes
                    {
                         OFFSET -0.04000 -4.41509 8.49910
                         CHANNELS 3 Zrotation Xrotation Yrotation
                         End Site
                         {
                              OFFSET 0.08000 -0.04745 9.77979
                         }
                    }
               }
          }
     }
     JOINT RightUpLeg
     {
          OFFSET -8.94580 -8.66707 0.10165
          CHANNELS 3 Zrotation Xrotation Yrotation
          JOINT RightLeg
          {
               OFFSET 0.00000 -44.42270 1.37270
               CHANNELS 3 Zrotation Xrotation Yrotation
               JOINT RightFoot
               {
                    OFFSET 0.25355 -42.09240 -1.46059
                    CHANNELS 3 Zrotation Xrotation Yrotation
                    JOINT RightToes
                    {
                         OFFSET 0.04000 -4.41509 8.49910
                         CHANNELS 3 Zrotation Xrotation Yrotation
                         End Site
                         {
                              OFFSET -0.08000 -0.13745 9.77979
                         }
                    }
               }
          }
     }
}
MOTION
Frames: 8
Frame Time: 0.01667
32.27200 96.78790 -14.46120 -7.65423 -3.19685 -25.76670 2.19464 6.77529 1.15050 1.61944 13.77600 2.45796 1.58876 -8.17386 7.82107 0.00000 0.00000 0.00000 -102.56800 -31.85800 -74.52930 20.13010 35.78940 -115.30600 34.24970 14.56330 20.06440 13.67060 1.16893 4.46990 70.88510 -21.78070 71.49620 6.85273 31.94680 93.01470 -2.63487 9.63544 11.74800 12.75490 -21.07960 8.47549 -0.02100 30.52720 5.82780 -3.75261 -0.33834 0.22655 -8.37944 -9.74738 -4.38978 -6.44152 -3.34346 -3.35055 -0.23029 31.99730 3.49412 15.09580 -26.18000 2.25336 6.33648 21.99770 -18.09800 
32.32540 96.80120 -14.68970 -7.61017 -3.03161 -26.27700 2.01135 6.84127 1.14990 1.54733 13.87440 2.44309 1.37768 -7.97642 7.93822 0.00000 0.00000 0.00000 -102.58300 -32.08740 -74.68830 20.04080 35.76990 -115.14400 34.11520 14.51530 19.96870 13.54180 1.17425 4.54666 71.01830 -21.52460 71.36670 6.78205 31.95420 92.86960 -2.50607 9.65176 11.85080 13.10460 -21.22410 8.87959 -0.34004 30.47070 6.07987 -3.87741 -0.43729 0.23180 -7.28684 -8.79982 -3.31561 -6.18577 -4.07115 -3.48623 -0.73148 32.40220 3.83715 14.71430 -25.62130 2.11429 5.98852 21.31290 -17.32430 
32.38230 96.79190 -14.94210 -7.50731 -2.85771 -26.75210 1.83089 6.86953 1.12665 1.46399 13.90090 2.38006 1.11006 -7.74363 8.03663 0.00000 0.00000 0.00000 -102.60600 -32.34060 -74.98390 19.87730 35.81770 -114.85300 33.98690 14.44900 19.80750 13.39510 1.18058 4.63712 71.13170 -21.27130 71.26410 6.64524 31.95360 92.77640 -2.38786 9.66630 11.98990 13.46330 -21.38780 9.34432 -0.74073 30.32900 6.38441 -3.94927 -0.26023 0.24135 -6.82481 -8.52669 -2.58804 -6.04339 -4.83221 -3.63816 -1.09710 32.86610 4.17009 14.49230 -25.42110 2.05157 5.79700 20.95080 -16.77150 
32.43890 96.74850 -15.22660 -7.35589 -2.70568 -27.19180 1.65750 6.86729 1.08951 1.36744 13.87050 2.29084 0.85316 -7.55113 8.15802 0.00000 0.00000 0.00000 -102.68900 -32.55880 -75.42720 19.69230 35.93400 -114.49500 33.89960 14.39510 19.66670 13.25370 1.18824 4.73528 71.19700 -21.02860 71.21360 6.43630 31.94130 92.66570 -2.33004 9.67171 12.18620 13.84040 -21.54090 9.78817 -1.28482 30.10050 6.83811 -3.95021 0.23790 0.25551 -7.06593 -9.04253 -2.24771 -6.04910 -5.58407 -3.77606 -1.21272 33.40490 4.27104 14.34810 -25.68930 2.06253 5.75235 20.90510 -16.46300 
32.49030 96.66900 -15.54530 -7.19863 -2.58501 -27.60110 1.51767 6.85372 1.04609 1.26615 13.82330 2.19794 0.66410 -7.46307 8.33225 0.00000 0.00000 0.00000 -102.89200 -32.67810 -76.06250 19.58940 36.10440 -114.17500 33.85940 14.39080 19.67170 13.13040 1.19486 4.82179 71.23690 -20.76480 71.27350 6.12712 31.91730 92.48820 -2.37466 9.66193 12.42150 14.26110 -21.67940 10.23670 -1.91038 29.84540 7.37828 -3.92944 0.93628 0.27371 -7.75439 -10.01750 -2.25160 -6.16717 -6.27491 -3.84391 -1.01819 34.00330 3.84704 14.18200 -26.37990 2.12295 5.77037 20.97890 -16.34400 
32.52960 96.56160 -15.89800 -7.08891 -2.48540 -27.97880 1.43931 6.84965 0.99131 1.16819 13.80290 2.09726 0.58415 -7.48810 8.56970 0.00000 0.00000 0.00000 -103.23100 -32.67190 -76.92270 19.66840 36.29360 -114.00000 33.84120 14.46750 19.94140 13.01770 1.20006 4.89660 71.28040 -20.40880 71.50290 5.72414 31.87220 92.17640 -2.57080 9.62927 12.68080 14.74680 -21.82940 10.76920 -2.47955 29.66210 7.83112 -3.95288 1.61837 0.29476 -8.43981 -10.89530 -2.42843 -6.32298 -6.85876 -3.79587 -0.52139 34.63720 2.67866 13.91960 -27.31060 2.19442 5.73583 20.88480 -16.36250 
32.55360 96.43940 -16.28780 -7.05794 -2.39797 -28.32130 1.43651 6.86685 0.91678 1.07611 13.83410 1.97425 0.64789 -7.58504 8.85024 0.00000 0.00000 0.00000 -103.67300 -32.53880 -77.97760 19.98320 36.46150 -114.02600 33.80340 14.63920 20.54500 12.88010 1.20436 4.97614 71.38040 -19.89880 71.93170 5.26580 31.80920 91.66390 -2.93127 9.57058 12.96710 15.29500 -22.01380 11.40410 -2.90661 29.61470 8.07389 -4.03518 2.11087 0.31571 -8.74342 -11.27400 -2.52318 -6.46625 -7.31272 -3.63474 0.21483 35.31650 0.75385 13.47510 -28.25170 2.22846 5.59168 20.48490 -16.47610 
32.56490 96.31290 -16.72080 -7.09963 -2.33760 -28.64240 1.51360 6.90778 0.83061 0.99071 13.92330 1.84582 0.85413 -7.69657 9.11704 0.00000 0.00000 0.00000 -104.17300 -32.25930 -79.12510 20.53450 36.57700 -114.24300 33.69880 14.89520 21.47300 12.67770 1.20378 5.05106 71.57730 -19.21520 72.54010 4.79609 31.74170 90.94750 -3.39923 9.49319 13.27290 15.87050 -22.21170 12.08340 -3.19625 29.68330 8.11429 -4.14463 2.38141 0.33314 -8.57176 -11.10850 -2.38281 -6.60117 -7.63573 -3.38789 1.09378 36.10300 -1.69236 12.76150 -29.04780 2.18474 5.41432 19.97950 -16.69340 
